{"title":"The.Wiggles.Wiggly.Safari[2002]DVDRIP.XVID[Eng]-Bearmeister.avi","uid":3971436,"size":524343296,"categoryP":"video","categoryS":"movies","magnet":"?xt=urn:btih:a8ec6347f9643b3b1ad5259085c8311fd231162e&amp;dn=The.Wiggles.Wiggly.Safari%5B2002%5DDVDRIP.XVID%5BEng%5D-Bearmeister.avi&amp;tr=udp%3A%2F%2Ftracker.openbittorrent.com%3A80&amp;tr=udp%3A%2F%2Fopen.demonii.com%3A1337&amp;tr=udp%3A%2F%2Ftracker.coppersurfer.tk%3A6969&amp;tr=udp%3A%2F%2Fexodus.desync.com%3A6969","seeders":2,"leechers":0,"uploader":"bearmeister","files":1,"time":1200024703,"description":"  Duration: 00:51:40.3, bitrate: 1353 kb/s\n  Stream #0.0: Video: mpeg4, 400x304, 25.00 fps\n  Stream #0.1: Audio: mp3, 24000 Hz, stereo, 62 kb/s\n\nG&amp;#039;day from the Australia Zoo, where the Wiggles get wild with Crocodile Hunter Steve Irwin. It&amp;#039;s a Wiggly Safari: 55 jaw-snappin&amp;#039;, kookaburra-hootin&amp;#039;, dolphin-splashin&amp;#039; minutes of grand adventure. A big ham himself, Irwin meshes naturally with the tuneful quartet as they sing, dance, and share factual tidbits about cockatoos, crocodiles, emus, and more. Colors pop off the screen as Dorothy, Captain Feathersword, and little dancers cavort through the zoo. Packed with 16 snappy tunes, this particular Wiggles collection revs up the tempo from earlier titles like Wiggle Time and Toot! Toot! Could this lush outdoor setting, where songs like &quot;Dingo Tango&quot; and &quot;Cocky Want a Cracker&quot; sizzle in the sunshine, be responsible for inspiring this ultra-imaginative play list? Or perhaps Irwin&amp;#039;s invigorating presence stimulated the fresh, lively feel of this exceptional show. Regardless, Wiggles fans from ages 1 to 8 will surely delight in this musical tour of the Australia Zoo.","torrent":{"xt":"urn:btih:a8ec6347f9643b3b1ad5259085c8311fd231162e","amp;dn":"The.Wiggles.Wiggly.Safari%5B2002%5DDVDRIP.XVID%5BEng%5D-Bearmeister.avi","amp;tr":["udp%3A%2F%2Ftracker.openbittorrent.com%3A80","udp%3A%2F%2Fopen.demonii.com%3A1337","udp%3A%2F%2Ftracker.coppersurfer.tk%3A6969","udp%3A%2F%2Fexodus.desync.com%3A6969"],"infoHash":"a8ec6347f9643b3b1ad5259085c8311fd231162e","infoHashBuffer":{"type":"Buffer","data":[168,236,99,71,249,100,59,59,26,213,37,144,133,200,49,31,210,49,22,46]},"announce":[],"urlList":[]}}